# xmcd
#
# Track frame offsets: 
#        150
#        19266
#        34315
#        43958
#        63846
#        84078
#        102692
#        117584
#        134347
#        152487
#        170333
#        186511
#        204125
#        220117
#        238661
#        250156
#        266598
#        288983
#        306553
#        327061
#
# Disc length: 4565 seconds
#
# Revision: 5
# Processed by: cddbd v1.5.2PL0 Copyright (c) Steve Scherf et al.
# Submitted via: ExactAudioCopy v1.3
#
DISCID=2411d314
DTITLE=Various Artist - Songbird - Disc Two
DYEAR=2004
DGENRE=Easy Listening
TTITLE0=Katie Melua - The Closest Thing to Crazy
TTITLE1=Joni Mitchell - Night Ride Home
TTITLE2=Amy Winehouse - (There Is) No Greater Love
TTITLE3=Sia - Don't Bring Me Down
TTITLE4=Liz Fraser (Cocteau Twins) - Evangeline
TTITLE5=Marianne Faithfull - The Ballad of Lucy Jordan
TTITLE6=Alison Moyet - The First Time Ever I Saw Your Face
TTITLE7=Joan Baez - The Night They Drove Old Dixie Down
TTITLE8=Shelby Lynne - Bend
TTITLE9=Kim Richey - A Place Called Home
TTITLE10=Shawn Colvin - (Looking For) The Heart of Saturday Night
TTITLE11=Mary Black - Wonder Child
TTITLE12=Lizz Wright - Eternity
TTITLE13=Jodie Brooke Wilson - At Seventeen
TTITLE14=Nanci Griffith - In a Very Blue Moon
TTITLE15=Gretchen Peters - Tomorrow Morning
TTITLE16=Silje Nergaard - Be Still My Heart
TTITLE17=Natalie Merchant - San Andreas Fault
TTITLE18=Karen Matheson (with Secret Garden) - Karen Matheson - Prayer
TTITLE19=Roisin O'Reilly - The Edge of the Moon
EXTD=
EXTT0=
EXTT1=
EXTT2=
EXTT3=
EXTT4=
EXTT5=
EXTT6=
EXTT7=
EXTT8=
EXTT9=
EXTT10=
EXTT11=
EXTT12=
EXTT13=
EXTT14=
EXTT15=
EXTT16=
EXTT17=
EXTT18=
EXTT19=
PLAYORDER=
